HIERARCHY
ROOT joint_0
{
	OFFSET 0.000000 0.000000 0.000000
	CHANNELS 6 Xposition Yposition Zposition Zrotation Yrotation Xrotation 
	JOINT joint_1
	{
		OFFSET 0.511002 1.944000 108.288940
		CHANNELS 3 Zrotation Yrotation Xrotation
		JOINT joint_2
		{
			OFFSET -9.074005 1.512993 98.440063
			CHANNELS 3 Zrotation Yrotation Xrotation
			JOINT joint_3
			{
				OFFSET -8.590996 1.815002 98.366943
				CHANNELS 3 Zrotation Yrotation Xrotation
				JOINT joint_4
				{
					OFFSET 2.489998 3.531998 136.462036
					CHANNELS 3 Zrotation Yrotation Xrotation
					JOINT joint_5
					{
						OFFSET 22.708000 2.955002 80.357056
						CHANNELS 3 Zrotation Yrotation Xrotation
						End Site
						{
							OFFSET 0.000000 0.000000 0.000000
						}
					}
				}
				JOINT joint_6
				{
					OFFSET 2.860001 -27.684998 77.234009
					CHANNELS 3 Zrotation Yrotation Xrotation
					JOINT joint_7
					{
						OFFSET 5.449997 -131.244003 -18.851929
						CHANNELS 3 Zrotation Yrotation Xrotation
						JOINT joint_8
						{
							OFFSET 35.757000 -24.661995 -264.074097
							CHANNELS 3 Zrotation Yrotation Xrotation
							JOINT joint_9
							{
								OFFSET 49.392001 -1.747002 -239.960938
								CHANNELS 3 Zrotation Yrotation Xrotation
								End Site
								{
									OFFSET 0.000000 0.000000 0.000000
								}
							}
						}
					}
				}
				JOINT joint_10
				{
					OFFSET -0.127998 31.625000 75.753052
					CHANNELS 3 Zrotation Yrotation Xrotation
					JOINT joint_11
					{
						OFFSET -5.618004 131.132996 -19.557007
						CHANNELS 3 Zrotation Yrotation Xrotation
						JOINT joint_12
						{
							OFFSET 46.488998 30.127991 -261.826050
							CHANNELS 3 Zrotation Yrotation Xrotation
							JOINT joint_13
							{
								OFFSET 66.021003 0.474030 -235.934937
								CHANNELS 3 Zrotation Yrotation Xrotation
								End Site
								{
									OFFSET 0.000000 0.000000 0.000000
								}
							}
						}
					}
				}
			}
		}
	}
	JOINT joint_14
	{
		OFFSET 15.887001 -78.871004 -94.561035
		CHANNELS 3 Zrotation Yrotation Xrotation
		JOINT joint_15
		{
			OFFSET -4.133003 6.714001 -473.615967
			CHANNELS 3 Zrotation Yrotation Xrotation
			JOINT joint_16
			{
				OFFSET -19.541000 5.340000 -399.613007
				CHANNELS 3 Zrotation Yrotation Xrotation
				JOINT joint_17
				{
					OFFSET 164.317001 41.657999 -73.195000
					CHANNELS 3 Zrotation Yrotation Xrotation
					End Site
					{
						OFFSET 0.000000 0.000000 0.000000
					}
				}
			}
		}
	}
	JOINT joint_18
	{
		OFFSET 6.513000 77.960991 -96.406982
		CHANNELS 3 Zrotation Yrotation Xrotation
		JOINT joint_19
		{
			OFFSET -10.660004 -8.518997 -473.485016
			CHANNELS 3 Zrotation Yrotation Xrotation
			JOINT joint_20
			{
				OFFSET -36.967995 -11.098999 -398.260010
				CHANNELS 3 Zrotation Yrotation Xrotation
				JOINT joint_21
				{
					OFFSET 166.067997 30.363998 -74.785000
					CHANNELS 3 Zrotation Yrotation Xrotation
					End Site
					{
						OFFSET 0.000000 0.000000 0.000000
					}
				}
			}
		}
	}
}
MOTION
Frames: 9
Frame Time: 0.016667
-3049.496582 921.677979 1061.135010 -1.718596 0.287432 0.491610 -0.158200 0.679967 -1.342766 -0.000181 -0.093126 0.280800 -0.048805 0.165394 -0.214089 -0.277736 -2.375481 1.323399 0.000000 0.000000 0.000000 -1.583030 1.669692 0.176260 0.361168 1.445277 1.243068 -0.527696 5.242831 -2.496935 0.000000 0.000000 0.000000 -4.647248 2.301807 -2.291018 0.410992 3.217047 1.172073 0.966492 4.632052 3.197126 0.000000 0.000000 0.000000 -2.756516 2.162878 -3.699980 -2.893367 -3.225913 0.505716 -2.753654 1.393369 -1.568988 0.000000 0.000000 0.000000 -1.114203 1.358581 6.504814 -0.836281 -4.073651 -0.903366 -1.057338 4.500073 -1.294707 0.000000 0.000000 0.000000 
-3049.453125 921.555969 1061.078003 -1.718748 0.267827 0.489673 -0.154676 0.687880 -1.351261 0.004644 -0.094694 0.283840 -0.044586 0.168743 -0.216989 -0.278575 -2.381140 1.327321 0.000000 0.000000 0.000000 -1.572025 1.671110 0.199761 0.356519 1.446629 1.213083 -0.526694 5.236558 -2.491220 0.000000 0.000000 0.000000 -4.649180 2.308911 -2.299909 0.414768 3.226244 1.191096 0.966228 4.633967 3.196671 0.000000 0.000000 0.000000 -2.754644 2.183625 -3.692469 -2.891236 -3.215726 0.504199 -2.752115 1.372308 -1.562982 0.000000 0.000000 0.000000 -1.115248 1.381917 6.519377 -0.836261 -4.067245 -0.913669 -1.057862 4.480033 -1.291242 0.000000 0.000000 0.000000 
-3049.396973 921.441956 1061.016968 -1.718353 0.245259 0.488013 -0.152009 0.698178 -1.359877 0.008601 -0.096844 0.285736 -0.041078 0.172949 -0.219084 -0.279825 -2.384215 1.332334 0.000000 0.000000 0.000000 -1.561693 1.672318 0.223580 0.351904 1.447628 1.182389 -0.525376 5.230160 -2.484009 0.000000 0.000000 0.000000 -4.649812 2.316157 -2.309558 0.418770 3.235482 1.210714 0.966649 4.637301 3.198446 0.000000 0.000000 0.000000 -2.752535 2.209109 -3.685862 -2.888960 -3.207522 0.502171 -2.750407 1.353468 -1.557460 0.000000 0.000000 0.000000 -1.116326 1.409802 6.533651 -0.836096 -4.062243 -0.925159 -1.058411 4.460665 -1.287909 0.000000 0.000000 0.000000 
-3049.332764 921.335571 1060.953979 -1.719190 0.223533 0.486731 -0.150485 0.706483 -1.368533 0.011247 -0.098913 0.286550 -0.038634 0.177382 -0.219439 -0.281169 -2.388019 1.337819 0.000000 0.000000 0.000000 -1.550839 1.673196 0.246441 0.347402 1.448419 1.152140 -0.524017 5.223768 -2.476730 0.000000 0.000000 0.000000 -4.647004 2.324097 -2.321764 0.423389 3.245174 1.231660 0.967999 4.640940 3.203325 0.000000 0.000000 0.000000 -2.749275 2.235088 -3.680005 -2.885619 -3.203165 0.499793 -2.747532 1.340009 -1.552784 0.000000 0.000000 0.000000 -1.116933 1.438666 6.547754 -0.835358 -4.060310 -0.937990 -1.058670 4.443853 -1.284916 0.000000 0.000000 0.000000 
-3049.254883 921.237305 1060.887939 -1.719278 0.199217 0.485641 -0.150543 0.715760 -1.377047 0.012241 -0.100529 0.286501 -0.037778 0.182436 -0.219896 -0.283184 -2.388772 1.345268 0.000000 0.000000 0.000000 -1.537826 1.673870 0.270544 0.342800 1.449225 1.120587 -0.522307 5.216867 -2.467776 0.000000 0.000000 0.000000 -4.640410 2.332637 -2.334766 0.428347 3.255055 1.254090 0.969748 4.645445 3.209527 0.000000 0.000000 0.000000 -2.745783 2.265526 -3.675057 -2.882141 -3.200776 0.497147 -2.744480 1.328778 -1.548592 0.000000 0.000000 0.000000 -1.117646 1.471610 6.561672 -0.834564 -4.059446 -0.952055 -1.059033 4.427595 -1.282070 0.000000 0.000000 0.000000 
-3049.152588 921.147949 1060.811035 -1.716779 0.161821 0.486153 -0.150801 0.740390 -1.389609 0.014183 -0.107488 0.288948 -0.036557 0.193155 -0.222702 -0.285246 -2.389074 1.352762 0.000000 0.000000 0.000000 -1.534293 1.672940 0.299198 0.338101 1.446694 1.084168 -0.519815 5.210229 -2.455137 0.000000 0.000000 0.000000 -4.636873 2.338845 -2.347898 0.433637 3.263269 1.280477 0.970849 4.649510 3.213550 0.000000 0.000000 0.000000 -2.743391 2.311188 -3.672796 -2.879894 -3.194845 0.493002 -2.742879 1.311587 -1.543528 0.000000 0.000000 0.000000 -1.119046 1.519523 6.572873 -0.834124 -4.057788 -0.966257 -1.059695 4.409282 -1.278980 0.000000 0.000000 0.000000 
-3049.056396 921.058105 1060.723022 -1.713803 0.125698 0.483980 -0.149930 0.765329 -1.404004 0.017871 -0.122086 0.294913 -0.034315 0.209625 -0.228180 -0.286712 -2.374728 1.355890 0.000000 0.000000 0.000000 -1.544078 1.670403 0.330123 0.333858 1.440526 1.048576 -0.517271 5.203730 -2.442593 0.000000 0.000000 0.000000 -4.637343 2.343078 -2.356940 0.438399 3.269803 1.306521 0.971756 4.655895 3.216789 0.000000 0.000000 0.000000 -2.742216 2.353562 -3.667226 -2.878616 -3.181618 0.487342 -2.742578 1.285045 -1.536673 0.000000 0.000000 0.000000 -1.120456 1.564285 6.587572 -0.833743 -4.053243 -0.981721 -1.060423 4.390308 -1.275800 0.000000 0.000000 0.000000 
-3048.934814 920.977295 1060.625000 -1.708196 0.076965 0.483419 -0.149196 0.803761 -1.421844 0.022319 -0.140626 0.302013 -0.031691 0.231300 -0.235337 -0.288603 -2.357158 1.360004 0.000000 0.000000 0.000000 -1.562775 1.666468 0.365947 0.329467 1.431284 1.007689 -0.513873 5.197567 -2.425988 0.000000 0.000000 0.000000 -4.641298 2.345234 -2.366090 0.443550 3.274990 1.336278 0.972117 4.661655 3.218182 0.000000 0.000000 0.000000 -2.742429 2.410720 -3.664486 -2.878867 -3.164965 0.480638 -2.743987 1.253088 -1.529199 0.000000 0.000000 0.000000 -1.122674 1.623446 6.599532 -0.833864 -4.047525 -0.997360 -1.061580 4.368975 -1.272379 0.000000 0.000000 0.000000 
-3048.682129 920.927673 1060.514038 -1.690957 -0.037255 0.499714 -0.157340 0.911079 -1.454793 0.021260 -0.159365 0.307882 -0.034589 0.262337 -0.242021 -0.290889 -2.370844 1.370169 0.000000 0.000000 0.000000 -1.565948 1.659932 0.416703 0.322411 1.420362 0.941256 -0.507269 5.187666 -2.393160 0.000000 0.000000 0.000000 -4.632796 2.343166 -2.388526 0.451369 3.276046 1.387632 0.968296 4.658543 3.205981 0.000000 0.000000 0.000000 -2.744698 2.549381 -3.685059 -2.882571 -3.152296 0.471984 -2.748921 1.218520 -1.522592 0.000000 0.000000 0.000000 -1.129545 1.761832 6.587790 -0.837025 -4.044023 -1.010013 -1.065363 4.340098 -1.268738 0.000000 0.000000 0.000000 
